<svg width="24" height="24" viewBox="0 0 24 24" fill="none" xmlns="http://www.w3.org/2000/svg">
  <path d="M12 21.6L16.5 12.9H7.5L12 21.6Z" fill="#E24329"/>
  <path d="M12 21.6L7.5 12.9H3L12 21.6Z" fill="#FC6D26"/>
  <path d="M3 12.9L1.5 8.4C1.3 7.8 1.5 7.2 2.1 6.9L12 21.6L3 12.9Z" fill="#FCA326"/>
  <path d="M3 12.9H7.5L5.25 6.9L3 12.9Z" fill="#E24329"/>
  <path d="M12 21.6L16.5 12.9H21L12 21.6Z" fill="#FC6D26"/>
  <path d="M21 12.9L22.5 8.4C22.7 7.8 22.5 7.2 21.9 6.9L12 21.6L21 12.9Z" fill="#FCA326"/>
  <path d="M21 12.9H16.5L18.75 6.9L21 12.9Z" fill="#E24329"/>
  <path d="M5.25 6.9L7.5 12.9H16.5L18.75 6.9C19.05 6 18.3 5.1 17.4 5.1H6.6C5.7 5.1 4.95 6 5.25 6.9Z" fill="#E24329"/>
</svg> 